<mxfile host="app.diagrams.net" modified="2024-01-08T11:07:29.094Z" agent="Mozilla/5.0 (Windows NT 10.0; Win64; x64) AppleWebKit/537.36 (KHTML, like Gecko) Chrome/120.0.0.0 Safari/537.36" etag="6XdgqilTVFLUKe8U0KlU" version="22.1.17" type="github">
  <diagram id="R2lEEEUBdFMjLlhIrx00" name="Page-1">
    <mxGraphModel dx="2085" dy="681" grid="1" gridSize="10" guides="1" tooltips="1" connect="1" arrows="1" fold="1" page="1" pageScale="1" pageWidth="850" pageHeight="1100" math="0" shadow="0" extFonts="Permanent Marker^https://fonts.googleapis.com/css?family=Permanent+Marker">
      <root>
        <mxCell id="0" />
        <mxCell id="1" parent="0" />
        <mxCell id="IUUmMOL3crDyiJliO-Nq-1" value="Student" style="whiteSpace=wrap;html=1;align=center;" vertex="1" parent="1">
          <mxGeometry x="660" y="410" width="100" height="40" as="geometry" />
        </mxCell>
        <mxCell id="IUUmMOL3crDyiJliO-Nq-2" value="Project" style="whiteSpace=wrap;html=1;align=center;" vertex="1" parent="1">
          <mxGeometry x="375" y="630" width="100" height="40" as="geometry" />
        </mxCell>
        <mxCell id="IUUmMOL3crDyiJliO-Nq-3" value="Professor" style="whiteSpace=wrap;html=1;align=center;" vertex="1" parent="1">
          <mxGeometry x="10" y="410" width="100" height="40" as="geometry" />
        </mxCell>
        <mxCell id="IUUmMOL3crDyiJliO-Nq-4" value="Department" style="whiteSpace=wrap;html=1;align=center;" vertex="1" parent="1">
          <mxGeometry x="375" y="160" width="100" height="40" as="geometry" />
        </mxCell>
        <mxCell id="IUUmMOL3crDyiJliO-Nq-5" value="Manages/Done" style="shape=rhombus;perimeter=rhombusPerimeter;whiteSpace=wrap;html=1;align=center;" vertex="1" parent="1">
          <mxGeometry x="365" y="400" width="120" height="60" as="geometry" />
        </mxCell>
        <mxCell id="IUUmMOL3crDyiJliO-Nq-6" value="Studies" style="shape=rhombus;perimeter=rhombusPerimeter;whiteSpace=wrap;html=1;align=center;" vertex="1" parent="1">
          <mxGeometry x="540" y="220" width="120" height="60" as="geometry" />
        </mxCell>
        <mxCell id="IUUmMOL3crDyiJliO-Nq-7" value="Works" style="shape=rhombus;perimeter=rhombusPerimeter;whiteSpace=wrap;html=1;align=center;" vertex="1" parent="1">
          <mxGeometry x="170" y="220" width="120" height="60" as="geometry" />
        </mxCell>
        <mxCell id="IUUmMOL3crDyiJliO-Nq-8" value="" style="endArrow=none;html=1;rounded=0;entryX=0;entryY=0.5;entryDx=0;entryDy=0;" edge="1" parent="1" target="IUUmMOL3crDyiJliO-Nq-5">
          <mxGeometry relative="1" as="geometry">
            <mxPoint x="110" y="429.5" as="sourcePoint" />
            <mxPoint x="270" y="429.5" as="targetPoint" />
          </mxGeometry>
        </mxCell>
        <mxCell id="IUUmMOL3crDyiJliO-Nq-9" value="" style="endArrow=none;html=1;rounded=0;entryX=1;entryY=0.5;entryDx=0;entryDy=0;exitX=0;exitY=1;exitDx=0;exitDy=0;" edge="1" parent="1" source="IUUmMOL3crDyiJliO-Nq-4" target="IUUmMOL3crDyiJliO-Nq-7">
          <mxGeometry relative="1" as="geometry">
            <mxPoint x="120" y="439.5" as="sourcePoint" />
            <mxPoint x="375" y="440" as="targetPoint" />
          </mxGeometry>
        </mxCell>
        <mxCell id="IUUmMOL3crDyiJliO-Nq-10" value="" style="endArrow=none;html=1;rounded=0;entryX=0.5;entryY=1;entryDx=0;entryDy=0;exitX=1;exitY=0;exitDx=0;exitDy=0;" edge="1" parent="1" source="IUUmMOL3crDyiJliO-Nq-3" target="IUUmMOL3crDyiJliO-Nq-7">
          <mxGeometry relative="1" as="geometry">
            <mxPoint x="130" y="449.5" as="sourcePoint" />
            <mxPoint x="385" y="450" as="targetPoint" />
          </mxGeometry>
        </mxCell>
        <mxCell id="IUUmMOL3crDyiJliO-Nq-11" value="" style="endArrow=none;html=1;rounded=0;entryX=1;entryY=0.5;entryDx=0;entryDy=0;exitX=0;exitY=0.5;exitDx=0;exitDy=0;" edge="1" parent="1" source="IUUmMOL3crDyiJliO-Nq-1" target="IUUmMOL3crDyiJliO-Nq-5">
          <mxGeometry relative="1" as="geometry">
            <mxPoint x="140" y="459.5" as="sourcePoint" />
            <mxPoint x="395" y="460" as="targetPoint" />
          </mxGeometry>
        </mxCell>
        <mxCell id="IUUmMOL3crDyiJliO-Nq-12" value="" style="endArrow=none;html=1;rounded=0;entryX=0.5;entryY=1;entryDx=0;entryDy=0;exitX=0.5;exitY=0;exitDx=0;exitDy=0;" edge="1" parent="1" source="IUUmMOL3crDyiJliO-Nq-2" target="IUUmMOL3crDyiJliO-Nq-5">
          <mxGeometry relative="1" as="geometry">
            <mxPoint x="150" y="469.5" as="sourcePoint" />
            <mxPoint x="405" y="470" as="targetPoint" />
          </mxGeometry>
        </mxCell>
        <mxCell id="IUUmMOL3crDyiJliO-Nq-13" value="Name" style="ellipse;whiteSpace=wrap;html=1;align=center;" vertex="1" parent="1">
          <mxGeometry x="-100" y="310" width="100" height="40" as="geometry" />
        </mxCell>
        <mxCell id="IUUmMOL3crDyiJliO-Nq-15" value="Research" style="ellipse;whiteSpace=wrap;html=1;align=center;" vertex="1" parent="1">
          <mxGeometry x="-40" y="520" width="100" height="40" as="geometry" />
        </mxCell>
        <mxCell id="IUUmMOL3crDyiJliO-Nq-16" value="Speciality" style="ellipse;whiteSpace=wrap;html=1;align=center;" vertex="1" parent="1">
          <mxGeometry x="100" y="500" width="100" height="40" as="geometry" />
        </mxCell>
        <mxCell id="IUUmMOL3crDyiJliO-Nq-28" style="edgeStyle=orthogonalEdgeStyle;rounded=0;orthogonalLoop=1;jettySize=auto;html=1;exitX=0.5;exitY=1;exitDx=0;exitDy=0;" edge="1" parent="1" source="IUUmMOL3crDyiJliO-Nq-17">
          <mxGeometry relative="1" as="geometry">
            <mxPoint x="-140" y="420" as="targetPoint" />
          </mxGeometry>
        </mxCell>
        <mxCell id="IUUmMOL3crDyiJliO-Nq-17" value="Age" style="ellipse;whiteSpace=wrap;html=1;align=center;" vertex="1" parent="1">
          <mxGeometry x="-180" y="370" width="100" height="40" as="geometry" />
        </mxCell>
        <mxCell id="IUUmMOL3crDyiJliO-Nq-18" value="Rank" style="ellipse;whiteSpace=wrap;html=1;align=center;" vertex="1" parent="1">
          <mxGeometry x="-160" y="460" width="100" height="40" as="geometry" />
        </mxCell>
        <mxCell id="IUUmMOL3crDyiJliO-Nq-19" value="" style="endArrow=none;html=1;rounded=0;entryX=0.5;entryY=0;entryDx=0;entryDy=0;" edge="1" parent="1" source="IUUmMOL3crDyiJliO-Nq-52" target="IUUmMOL3crDyiJliO-Nq-1">
          <mxGeometry relative="1" as="geometry">
            <mxPoint x="764.644660940673" y="354.14213562373084" as="sourcePoint" />
            <mxPoint x="300" y="260" as="targetPoint" />
          </mxGeometry>
        </mxCell>
        <mxCell id="IUUmMOL3crDyiJliO-Nq-20" value="" style="endArrow=none;html=1;rounded=0;entryX=0;entryY=0;entryDx=0;entryDy=0;exitX=0.5;exitY=1;exitDx=0;exitDy=0;" edge="1" parent="1" source="IUUmMOL3crDyiJliO-Nq-6" target="IUUmMOL3crDyiJliO-Nq-1">
          <mxGeometry relative="1" as="geometry">
            <mxPoint x="395" y="220" as="sourcePoint" />
            <mxPoint x="310" y="270" as="targetPoint" />
          </mxGeometry>
        </mxCell>
        <mxCell id="IUUmMOL3crDyiJliO-Nq-21" value="" style="endArrow=none;html=1;rounded=0;entryX=0;entryY=0.5;entryDx=0;entryDy=0;exitX=1;exitY=1;exitDx=0;exitDy=0;" edge="1" parent="1" source="IUUmMOL3crDyiJliO-Nq-4" target="IUUmMOL3crDyiJliO-Nq-6">
          <mxGeometry relative="1" as="geometry">
            <mxPoint x="405" y="230" as="sourcePoint" />
            <mxPoint x="320" y="280" as="targetPoint" />
          </mxGeometry>
        </mxCell>
        <mxCell id="IUUmMOL3crDyiJliO-Nq-22" value="Degree Program" style="ellipse;whiteSpace=wrap;html=1;align=center;" vertex="1" parent="1">
          <mxGeometry x="690" y="530" width="110" height="50" as="geometry" />
        </mxCell>
        <mxCell id="IUUmMOL3crDyiJliO-Nq-24" value="Dep. Name" style="ellipse;whiteSpace=wrap;html=1;align=center;" vertex="1" parent="1">
          <mxGeometry x="375" y="60" width="100" height="40" as="geometry" />
        </mxCell>
        <mxCell id="IUUmMOL3crDyiJliO-Nq-25" value="Main Office" style="ellipse;whiteSpace=wrap;html=1;align=center;" vertex="1" parent="1">
          <mxGeometry x="500" y="60" width="100" height="40" as="geometry" />
        </mxCell>
        <mxCell id="IUUmMOL3crDyiJliO-Nq-27" value="Name" style="ellipse;whiteSpace=wrap;html=1;align=center;" vertex="1" parent="1">
          <mxGeometry x="820" y="320" width="100" height="40" as="geometry" />
        </mxCell>
        <mxCell id="IUUmMOL3crDyiJliO-Nq-29" value="Ending Date" style="ellipse;whiteSpace=wrap;html=1;align=center;" vertex="1" parent="1">
          <mxGeometry x="560" y="680" width="100" height="40" as="geometry" />
        </mxCell>
        <mxCell id="IUUmMOL3crDyiJliO-Nq-30" value="Starting date" style="ellipse;whiteSpace=wrap;html=1;align=center;" vertex="1" parent="1">
          <mxGeometry x="450" y="740" width="100" height="40" as="geometry" />
        </mxCell>
        <mxCell id="IUUmMOL3crDyiJliO-Nq-31" value="Sponser Name" style="ellipse;whiteSpace=wrap;html=1;align=center;" vertex="1" parent="1">
          <mxGeometry x="300" y="740" width="100" height="40" as="geometry" />
        </mxCell>
        <mxCell id="IUUmMOL3crDyiJliO-Nq-33" value="" style="endArrow=none;html=1;rounded=0;entryX=1;entryY=0;entryDx=0;entryDy=0;exitX=0;exitY=0.5;exitDx=0;exitDy=0;" edge="1" parent="1" source="IUUmMOL3crDyiJliO-Nq-27" target="IUUmMOL3crDyiJliO-Nq-1">
          <mxGeometry relative="1" as="geometry">
            <mxPoint x="775" y="364" as="sourcePoint" />
            <mxPoint x="770" y="420" as="targetPoint" />
          </mxGeometry>
        </mxCell>
        <mxCell id="IUUmMOL3crDyiJliO-Nq-34" value="" style="endArrow=none;html=1;rounded=0;exitX=1;exitY=0.5;exitDx=0;exitDy=0;" edge="1" parent="1" source="IUUmMOL3crDyiJliO-Nq-2" target="IUUmMOL3crDyiJliO-Nq-29">
          <mxGeometry relative="1" as="geometry">
            <mxPoint x="785" y="374" as="sourcePoint" />
            <mxPoint x="780" y="430" as="targetPoint" />
          </mxGeometry>
        </mxCell>
        <mxCell id="IUUmMOL3crDyiJliO-Nq-35" value="" style="endArrow=none;html=1;rounded=0;exitX=0.75;exitY=1;exitDx=0;exitDy=0;" edge="1" parent="1" source="IUUmMOL3crDyiJliO-Nq-2" target="IUUmMOL3crDyiJliO-Nq-30">
          <mxGeometry relative="1" as="geometry">
            <mxPoint x="795" y="384" as="sourcePoint" />
            <mxPoint x="790" y="440" as="targetPoint" />
          </mxGeometry>
        </mxCell>
        <mxCell id="IUUmMOL3crDyiJliO-Nq-36" value="" style="endArrow=none;html=1;rounded=0;entryX=0.5;entryY=0;entryDx=0;entryDy=0;exitX=0;exitY=1;exitDx=0;exitDy=0;" edge="1" parent="1" source="IUUmMOL3crDyiJliO-Nq-2" target="IUUmMOL3crDyiJliO-Nq-31">
          <mxGeometry relative="1" as="geometry">
            <mxPoint x="805" y="394" as="sourcePoint" />
            <mxPoint x="800" y="450" as="targetPoint" />
          </mxGeometry>
        </mxCell>
        <mxCell id="IUUmMOL3crDyiJliO-Nq-37" value="" style="endArrow=none;html=1;rounded=0;entryX=0;entryY=0;entryDx=0;entryDy=0;exitX=0.25;exitY=1;exitDx=0;exitDy=0;" edge="1" parent="1" source="IUUmMOL3crDyiJliO-Nq-1" target="IUUmMOL3crDyiJliO-Nq-22">
          <mxGeometry relative="1" as="geometry">
            <mxPoint x="815" y="404" as="sourcePoint" />
            <mxPoint x="810" y="460" as="targetPoint" />
          </mxGeometry>
        </mxCell>
        <mxCell id="IUUmMOL3crDyiJliO-Nq-40" value="" style="endArrow=none;html=1;rounded=0;exitX=0;exitY=0.5;exitDx=0;exitDy=0;" edge="1" parent="1" source="IUUmMOL3crDyiJliO-Nq-2">
          <mxGeometry relative="1" as="geometry">
            <mxPoint x="385" y="680" as="sourcePoint" />
            <mxPoint x="268.02822511010254" y="687.0147524014283" as="targetPoint" />
          </mxGeometry>
        </mxCell>
        <mxCell id="IUUmMOL3crDyiJliO-Nq-41" value="" style="endArrow=none;html=1;rounded=0;exitX=0.94;exitY=0.955;exitDx=0;exitDy=0;exitPerimeter=0;" edge="1" parent="1" source="IUUmMOL3crDyiJliO-Nq-3" target="IUUmMOL3crDyiJliO-Nq-16">
          <mxGeometry relative="1" as="geometry">
            <mxPoint x="385" y="660" as="sourcePoint" />
            <mxPoint x="278" y="697" as="targetPoint" />
          </mxGeometry>
        </mxCell>
        <mxCell id="IUUmMOL3crDyiJliO-Nq-42" value="" style="endArrow=none;html=1;rounded=0;exitX=0.25;exitY=1;exitDx=0;exitDy=0;entryX=0.5;entryY=0;entryDx=0;entryDy=0;" edge="1" parent="1" source="IUUmMOL3crDyiJliO-Nq-3" target="IUUmMOL3crDyiJliO-Nq-15">
          <mxGeometry relative="1" as="geometry">
            <mxPoint x="114" y="458" as="sourcePoint" />
            <mxPoint x="147" y="511" as="targetPoint" />
          </mxGeometry>
        </mxCell>
        <mxCell id="IUUmMOL3crDyiJliO-Nq-43" value="" style="endArrow=none;html=1;rounded=0;exitX=1;exitY=1;exitDx=0;exitDy=0;entryX=0.25;entryY=0;entryDx=0;entryDy=0;" edge="1" parent="1" source="IUUmMOL3crDyiJliO-Nq-13" target="IUUmMOL3crDyiJliO-Nq-3">
          <mxGeometry relative="1" as="geometry">
            <mxPoint x="45" y="460" as="sourcePoint" />
            <mxPoint x="20" y="530" as="targetPoint" />
          </mxGeometry>
        </mxCell>
        <mxCell id="IUUmMOL3crDyiJliO-Nq-44" value="" style="endArrow=none;html=1;rounded=0;exitX=0;exitY=0;exitDx=0;exitDy=0;entryX=1;entryY=0.5;entryDx=0;entryDy=0;" edge="1" parent="1" source="IUUmMOL3crDyiJliO-Nq-3" target="IUUmMOL3crDyiJliO-Nq-17">
          <mxGeometry relative="1" as="geometry">
            <mxPoint x="55" y="470" as="sourcePoint" />
            <mxPoint x="30" y="540" as="targetPoint" />
          </mxGeometry>
        </mxCell>
        <mxCell id="IUUmMOL3crDyiJliO-Nq-45" value="" style="endArrow=none;html=1;rounded=0;exitX=0;exitY=0.5;exitDx=0;exitDy=0;entryX=1;entryY=0;entryDx=0;entryDy=0;" edge="1" parent="1" source="IUUmMOL3crDyiJliO-Nq-3" target="IUUmMOL3crDyiJliO-Nq-18">
          <mxGeometry relative="1" as="geometry">
            <mxPoint x="65" y="480" as="sourcePoint" />
            <mxPoint x="40" y="550" as="targetPoint" />
          </mxGeometry>
        </mxCell>
        <mxCell id="IUUmMOL3crDyiJliO-Nq-46" value="" style="endArrow=none;html=1;rounded=0;exitX=0.5;exitY=1;exitDx=0;exitDy=0;entryX=0.75;entryY=0;entryDx=0;entryDy=0;" edge="1" parent="1" target="IUUmMOL3crDyiJliO-Nq-3">
          <mxGeometry relative="1" as="geometry">
            <mxPoint x="70" y="340" as="sourcePoint" />
            <mxPoint x="45" y="420" as="targetPoint" />
          </mxGeometry>
        </mxCell>
        <mxCell id="IUUmMOL3crDyiJliO-Nq-47" value="" style="endArrow=none;html=1;rounded=0;entryX=0;entryY=1;entryDx=0;entryDy=0;exitX=1;exitY=0;exitDx=0;exitDy=0;" edge="1" parent="1" source="IUUmMOL3crDyiJliO-Nq-4" target="IUUmMOL3crDyiJliO-Nq-25">
          <mxGeometry relative="1" as="geometry">
            <mxPoint x="385" y="210" as="sourcePoint" />
            <mxPoint x="300" y="260" as="targetPoint" />
          </mxGeometry>
        </mxCell>
        <mxCell id="IUUmMOL3crDyiJliO-Nq-48" value="" style="endArrow=none;html=1;rounded=0;entryX=0.5;entryY=1;entryDx=0;entryDy=0;exitX=0.5;exitY=0;exitDx=0;exitDy=0;" edge="1" parent="1" source="IUUmMOL3crDyiJliO-Nq-4" target="IUUmMOL3crDyiJliO-Nq-24">
          <mxGeometry relative="1" as="geometry">
            <mxPoint x="395" y="220" as="sourcePoint" />
            <mxPoint x="310" y="270" as="targetPoint" />
          </mxGeometry>
        </mxCell>
        <mxCell id="IUUmMOL3crDyiJliO-Nq-49" value="" style="endArrow=none;html=1;rounded=0;entryX=0.5;entryY=1;entryDx=0;entryDy=0;exitX=0;exitY=0.25;exitDx=0;exitDy=0;" edge="1" parent="1" source="IUUmMOL3crDyiJliO-Nq-4" target="IUUmMOL3crDyiJliO-Nq-51">
          <mxGeometry relative="1" as="geometry">
            <mxPoint x="405" y="230" as="sourcePoint" />
            <mxPoint x="335.35533905932743" y="94.14213562373106" as="targetPoint" />
          </mxGeometry>
        </mxCell>
        <mxCell id="IUUmMOL3crDyiJliO-Nq-50" value="SSN" style="ellipse;whiteSpace=wrap;html=1;align=center;fontStyle=4;" vertex="1" parent="1">
          <mxGeometry x="20" y="300" width="100" height="40" as="geometry" />
        </mxCell>
        <mxCell id="IUUmMOL3crDyiJliO-Nq-51" value="Dep.no." style="ellipse;whiteSpace=wrap;html=1;align=center;fontStyle=4;" vertex="1" parent="1">
          <mxGeometry x="265" y="60" width="100" height="40" as="geometry" />
        </mxCell>
        <mxCell id="IUUmMOL3crDyiJliO-Nq-52" value="SSN" style="ellipse;whiteSpace=wrap;html=1;align=center;fontStyle=4;" vertex="1" parent="1">
          <mxGeometry x="680" y="300" width="100" height="40" as="geometry" />
        </mxCell>
        <mxCell id="IUUmMOL3crDyiJliO-Nq-53" value="Degree" style="ellipse;whiteSpace=wrap;html=1;align=center;" vertex="1" parent="1">
          <mxGeometry x="830" y="490" width="100" height="40" as="geometry" />
        </mxCell>
        <mxCell id="IUUmMOL3crDyiJliO-Nq-54" value="Age" style="ellipse;whiteSpace=wrap;html=1;align=center;" vertex="1" parent="1">
          <mxGeometry x="840" y="410" width="100" height="40" as="geometry" />
        </mxCell>
        <mxCell id="IUUmMOL3crDyiJliO-Nq-55" value="" style="endArrow=none;html=1;rounded=0;entryX=1;entryY=0.5;entryDx=0;entryDy=0;exitX=0;exitY=0.5;exitDx=0;exitDy=0;" edge="1" parent="1" source="IUUmMOL3crDyiJliO-Nq-54" target="IUUmMOL3crDyiJliO-Nq-1">
          <mxGeometry relative="1" as="geometry">
            <mxPoint x="830" y="350" as="sourcePoint" />
            <mxPoint x="770" y="420" as="targetPoint" />
          </mxGeometry>
        </mxCell>
        <mxCell id="IUUmMOL3crDyiJliO-Nq-56" value="" style="endArrow=none;html=1;rounded=0;entryX=1;entryY=1;entryDx=0;entryDy=0;exitX=0;exitY=0.5;exitDx=0;exitDy=0;" edge="1" parent="1" source="IUUmMOL3crDyiJliO-Nq-53" target="IUUmMOL3crDyiJliO-Nq-1">
          <mxGeometry relative="1" as="geometry">
            <mxPoint x="840" y="360" as="sourcePoint" />
            <mxPoint x="780" y="430" as="targetPoint" />
          </mxGeometry>
        </mxCell>
        <mxCell id="IUUmMOL3crDyiJliO-Nq-57" value="Project No." style="ellipse;whiteSpace=wrap;html=1;align=center;fontStyle=4;" vertex="1" parent="1">
          <mxGeometry x="180" y="680" width="100" height="40" as="geometry" />
        </mxCell>
      </root>
    </mxGraphModel>
  </diagram>
</mxfile>
